{"title":"The.Hunger.Games.2012.CAM.XViD.AC3-26K","uid":7130228,"size":1619829021,"categoryP":"video","categoryS":"movies","magnet":"?xt=urn:btih:0021b9c9fe46cfeb68420faf4351ee10dc2ca4ec&amp;dn=The.Hunger.Games.2012.CAM.XViD.AC3-26K&amp;tr=udp%3A%2F%2Ftracker.openbittorrent.com%3A80&amp;tr=udp%3A%2F%2Fopen.demonii.com%3A1337&amp;tr=udp%3A%2F%2Ftracker.coppersurfer.tk%3A6969&amp;tr=udp%3A%2F%2Fexodus.desync.com%3A6969","seeders":5,"leechers":0,"uploader":"MisterNobody","files":4,"time":1332681744,"description":"The.Hunger.Games.2012.CAM.XViD.AC3-26K\n\nImdb: &lt;a href=&quot;\nhttp://www.imdb.com/title/tt1392170/&quot; rel=&quot;nofollow&quot; target=&quot;_NEW&quot;&gt;\nhttp://www.imdb.com/title/tt1392170/&lt;/a&gt;\n\nPlot:\nSet in a future where the Capitol selects a boy and girl from the twelve districts to fight to the \n\ndeath on live television, Katniss Everdeen volunteers to take her younger sister's place for the \n\nlatest match.\n\nSources:\nVIDEO-RUSSIAN VOB FILES THNXS GUYS :d\nAUDIO-INSPIRAL THNXS :d\n\nNotes:\nENCODED THE VIDEO OF THE VOB FILES :) THE VIDEO IS NOT SO BAD :D FOR A FIRST CAM AUDIO IS GOOD ENOUGH \n\n:) SO FILTERED THE VIDEO TO MAKE IT LOOK NICE AND THEN MUXED INSPIRALS CAM TO OUR ENCODE SO ENJOY \n\nTURNED OUT NICE :p \n\nGreetz:\nXtreme \n\nEncode|FYA|ILLUMANTI|CM8|RX|VISION|HDSCENE|NIGHTMAREZ|xTriLL|DTRG|CRYS|REMIXHD|BIDA|RX|REFILL|INSPiRAL\n\n|SIC|HOPE|Anonymous|GooN|P76|MIRAGE|ESCA|KoDeKinG\n\nTo all the people who have helped me :P you know who you are\n\nAnything to offer email us @: &lt;a class=&quot;__cf_email__&quot; href=&quot;/cdn-cgi/l/email-protection&quot; data-cfemail=&quot;2517134e654d50564d48444c490b4840&quot;&gt;[email&amp;#160;protected]&lt;/a&gt;&lt;script cf-hash='f9e31' type=&quot;text/javascript&quot;&gt;\n/* &lt;![CDATA[ */!function(){try{var t=&quot;currentScript&quot;in document?document.currentScript:function(){for(var t=document.getElementsByTagName(&quot;script&quot;),e=t.length;e--;)if(t[e].getAttribute(&quot;cf-hash&quot;))return t[e]}();if(t&amp;&amp;t.previousSibling){var e,r,n,i,c=t.previousSibling,a=c.getAttribute(&quot;data-cfemail&quot;);if(a){for(e=&quot;&quot;,r=parseInt(a.substr(0,2),16),n=2;a.length-n;n+=2)i=parseInt(a.substr(n,2),16)^r,e+=String.fromCharCode(i);e=document.createTextNode(e),c.parentNode.replaceChild(e,c)}}}catch(u){}}();/* ]]&gt; */&lt;/script&gt;\n\nVideo\nID : 0\nFormat : MPEG-4 Visual\nFormat profile : Advanced Simple@L5\nFormat settings, BVOP : 2\nFormat settings, QPel : No\nFormat settings, GMC : No warppoints\nFormat settings, Matrix : Default (MPEG)\nCodec ID : XVID\nCodec ID/Hint : XviD\nDuration : 2h 7mn\nBit rate : 1 334 Kbps\nWidth : 720 pixels\nHeight : 304 pixels\nDisplay aspect ratio : 2.35:1\nFrame rate : 25.000 fps\nColor space : YUV\nChroma subsampling : 4:2:0\nBit depth : 8 bits\nScan type : Progressive\nCompression mode : Lossy\nBits/(Pixel*Frame) : 0.244\nStream size : 1.19 GiB (80%)\nWriting library : XviD 1.2.1 (UTC 2008-12-04)\n\nAudio\nID : 1\nFormat : AC-3\nFormat/Info : Audio Coding 3\nMode extension : CM (complete main)\nCodec ID : 2000\nDuration : 2h 7mn\nBit rate mode : Constant\nBit rate : 320 Kbps\nChannel(s) : 2 channels\nChannel positions : Front: L R\nSampling rate : 44.1 KHz\nBit depth : 16 bits\nCompression mode : Lossy\nStream size : 292 MiB (19%)\nAlignment : Aligned on interleaves\nInterleave, duration : 70 ms (1.74 video frames)\nInterleave, preload duration : 208 ms\nTitle : audio","torrent":{"xt":"urn:btih:0021b9c9fe46cfeb68420faf4351ee10dc2ca4ec","amp;dn":"The.Hunger.Games.2012.CAM.XViD.AC3-26K","amp;tr":["udp%3A%2F%2Ftracker.openbittorrent.com%3A80","udp%3A%2F%2Fopen.demonii.com%3A1337","udp%3A%2F%2Ftracker.coppersurfer.tk%3A6969","udp%3A%2F%2Fexodus.desync.com%3A6969"],"infoHash":"0021b9c9fe46cfeb68420faf4351ee10dc2ca4ec","infoHashBuffer":{"type":"Buffer","data":[0,33,185,201,254,70,207,235,104,66,15,175,67,81,238,16,220,44,164,236]},"announce":[],"urlList":[]}}